<svg version="1.1" xmlns="http://www.w3.org/2000/svg" viewBox="0 0 125.78234347209218 122.62109375" width="125.78234347209218" height="122.62109375">
  <!-- svg-source:excalidraw -->
  
  <defs>
    <style class="style-fonts">
      @font-face {
        font-family: "Virgil";
        src: url("https://excalidraw.com/Virgil.woff2");
      }
      @font-face {
        font-family: "Cascadia";
        src: url("https://excalidraw.com/Cascadia.woff2");
      }
      @font-face {
        font-family: "Assistant";
        src: url("https://excalidraw.com/Assistant-Regular.woff2");
      }
    </style>
    
  </defs>
  <g stroke-linecap="round" transform="translate(10 10) rotate(0 52.041015625 51.310546875)"><path d="M44.22 1.14 C52.2 -1.12, 62.55 -0.47, 70.65 2.55 C78.74 5.57, 87.31 12.37, 92.79 19.26 C98.27 26.14, 102.14 35.35, 103.51 43.86 C104.88 52.37, 104 62.42, 101 70.31 C98.01 78.21, 92.33 85.9, 85.55 91.22 C78.77 96.55, 68.88 100.92, 60.31 102.27 C51.75 103.61, 42.4 102.39, 34.15 99.27 C25.91 96.14, 16.35 90.21, 10.84 83.52 C5.34 76.82, 2.25 67.63, 1.12 59.1 C-0.01 50.57, 1.21 40.27, 4.08 32.34 C6.94 24.42, 10.82 17.09, 18.33 11.55 C25.84 6.01, 43.05 0.99, 49.13 -0.9 C55.22 -2.8, 54.8 -0.93, 54.82 0.2 M44.14 2.01 C52.09 0.19, 62.7 1.91, 70.8 4.76 C78.9 7.62, 87.25 12.63, 92.74 19.14 C98.22 25.65, 102.39 35.5, 103.72 43.82 C105.05 52.14, 104 61.05, 100.72 69.05 C97.44 77.04, 90.68 86.19, 84.02 91.79 C77.36 97.39, 69.08 101.64, 60.78 102.62 C52.47 103.61, 42.4 101.05, 34.18 97.7 C25.97 94.35, 16.96 89.11, 11.5 82.5 C6.05 75.9, 2.63 66.51, 1.44 58.06 C0.25 49.61, 1.3 39.6, 4.37 31.8 C7.44 24, 13.15 16.2, 19.87 11.26 C26.59 6.31, 40.74 3.93, 44.7 2.11 C48.66 0.28, 43.85 -0.16, 43.62 0.3" stroke="#1e1e1e" stroke-width="2" fill="none"></path></g><g transform="translate(13.326627798794789 36.07922757905624) rotate(351.94475571304145 49.67876675498496 25.607627842420754)"><text x="0" y="35.89165118393693" font-family="Virgil, Segoe UI Emoji" font-size="40.972204547873204px" fill="#1e1e1e" text-anchor="start" style="white-space: pre;" direction="ltr" dominant-baseline="alphabetic">MiME</text></g></svg>